<?xml version="1.0" encoding="utf-8"?>
<svg viewBox="-91.30435943603516 -74.63768005371094 210.1449203491211 187.68114471435547" xmlns="http://www.w3.org/2000/svg">
  <g transform="matrix(0.10000000149011612, 0, 0, -0.10000000149011612, -150.33187918155738, 174.9159469981675)" fill="#007000" stroke="none">
    <path d="M2093 2448c-25-24-56-59-69-79-39-63-217-174-317-199-18-5-57-18-87-30-98-39-249-70-337-70-44 0-69-9-149-50-125-65-148-82-185-138-18-26-58-74-90-107-32-33-73-81-91-107-18-26-61-81-95-123-67-81-92-140-73-175 13-25 65-39 126-34l49 4-42-16c-55-20-113-86-113-128 1-56 34-109 116-182 194-175 367-268 539-290 55-8 127-14 160-14 33 0 102-6 154-14 78-12 98-19 122-42 24-23 33-26 47-18 19 13 26 45 17 81-4 18-23 32-73 56l-67 31 50 12c64 15 223 17 264 3 24-8 35-8 46 1 39 32-5 84-80 95-37 6-44 11-49 35-3 17-14 31-26 35-11 3-23 18-26 33-11 45-52 109-95 145-39 34-40 35-17 42 13 4 50 19 82 33l59 26 26-34c14-19 43-53 64-76 32-36 35-43 22-54-35-29-3-70 54-70 25 0 58-12 102-39 93-55 129-65 213-56 74 8 170 9 220 3 20-2 32 3 40 15 17 29-38 69-111 82l-58 11 64 33c48 24 72 31 94 27 33-7 57 7 57 34 0 50-88 57-191 16-58-23-119-34-119-22 0 3 5 17 10 32 20 52-23 72-65 30-27-27-34-23-59 37-8 21-43 65-76 98-33 33-60 64-60 68 0 4 13 20 28 35 26 24 41 53 87 162 8 18 33 54 57 81 24 26 52 59 63 73 11 14 49 47 85 74 98 74 137 114 190 192 89 130 121 240 85 292-37 52-128 85-269 97-65 6-83 12-110 35-76 66-127 68-193 8z"/>
  </g>
</svg>